<?xml version="1.0" encoding="UTF-8"?>
<svg width="800" height="800" viewBox="0 0 800 800" xmlns="http://www.w3.org/2000/svg">
  <style>
    @keyframes pulse {
      0% { opacity: 0.05; }
      50% { opacity: 0.08; }
      100% { opacity: 0.05; }
    }
    @keyframes scale {
      0% { transform: scale(1); }
      50% { transform: scale(1.02); }
      100% { transform: scale(1); }
    }
    .grid {
      stroke: currentColor;
      stroke-width: 0.5;
      opacity: 0.05;
    }
    .radar {
      fill: none;
      stroke: currentColor;
      stroke-width: 1.5;
      opacity: 0.08;
      animation: scale 10s ease-in-out infinite;
    }
    .radar-fill {
      fill: currentColor;
      opacity: 0.05;
      animation: pulse 4s ease-in-out infinite;
    }
    @media (prefers-color-scheme: dark) {
      .grid, .radar, .radar-fill { stroke: white; fill: white; }
    }
    @media (prefers-color-scheme: light) {
      .grid, .radar, .radar-fill { stroke: black; fill: black; }
    }
  </style>

  <!-- Grid Background -->
  <g>
    <!-- Horizontal Lines -->
    <line class="grid" x1="0" y1="50" x2="800" y2="50" />
    <line class="grid" x1="0" y1="100" x2="800" y2="100" />
    <line class="grid" x1="0" y1="150" x2="800" y2="150" />
    <line class="grid" x1="0" y1="200" x2="800" y2="200" />
    <line class="grid" x1="0" y1="250" x2="800" y2="250" />
    <line class="grid" x1="0" y1="300" x2="800" y2="300" />
    <line class="grid" x1="0" y1="350" x2="800" y2="350" />
    <line class="grid" x1="0" y1="400" x2="800" y2="400" />
    <line class="grid" x1="0" y1="450" x2="800" y2="450" />
    <line class="grid" x1="0" y1="500" x2="800" y2="500" />
    <line class="grid" x1="0" y1="550" x2="800" y2="550" />
    <line class="grid" x1="0" y1="600" x2="800" y2="600" />
    <line class="grid" x1="0" y1="650" x2="800" y2="650" />
    <line class="grid" x1="0" y1="700" x2="800" y2="700" />
    <line class="grid" x1="0" y1="750" x2="800" y2="750" />
    
    <!-- Vertical Lines -->
    <line class="grid" x1="50" y1="0" x2="50" y2="800" />
    <line class="grid" x1="100" y1="0" x2="100" y2="800" />
    <line class="grid" x1="150" y1="0" x2="150" y2="800" />
    <line class="grid" x1="200" y1="0" x2="200" y2="800" />
    <line class="grid" x1="250" y1="0" x2="250" y2="800" />
    <line class="grid" x1="300" y1="0" x2="300" y2="800" />
    <line class="grid" x1="350" y1="0" x2="350" y2="800" />
    <line class="grid" x1="400" y1="0" x2="400" y2="800" />
    <line class="grid" x1="450" y1="0" x2="450" y2="800" />
    <line class="grid" x1="500" y1="0" x2="500" y2="800" />
    <line class="grid" x1="550" y1="0" x2="550" y2="800" />
    <line class="grid" x1="600" y1="0" x2="600" y2="800" />
    <line class="grid" x1="650" y1="0" x2="650" y2="800" />
    <line class="grid" x1="700" y1="0" x2="700" y2="800" />
    <line class="grid" x1="750" y1="0" x2="750" y2="800" />
  </g>

  <!-- Radar Chart -->
  <g transform="translate(270, 400)">
    <!-- Radar Grid -->
    <g>
      <polygon class="radar" points="0,-200 173.2,-100 173.2,100 0,200 -173.2,100 -173.2,-100" />
      <polygon class="radar" points="0,-150 129.9,-75 129.9,75 0,150 -129.9,75 -129.9,-75" />
      <polygon class="radar" points="0,-100 86.6,-50 86.6,50 0,100 -86.6,50 -86.6,-50" />
      <polygon class="radar" points="0,-50 43.3,-25 43.3,25 0,50 -43.3,25 -43.3,-25" />
    </g>

    <!-- Radar Fill -->
    <polygon class="radar-fill" points="0,-180 155.9,-90 155.9,90 0,180 -155.9,90 -155.9,-90" />
    
    <!-- Radar Lines -->
    <g>
      <line class="radar" x1="0" y1="0" x2="0" y2="-200" />
      <line class="radar" x1="0" y1="0" x2="173.2" y2="-100" />
      <line class="radar" x1="0" y1="0" x2="173.2" y2="100" />
      <line class="radar" x1="0" y1="0" x2="0" y2="200" />
      <line class="radar" x1="0" y1="0" x2="-173.2" y2="100" />
      <line class="radar" x1="0" y1="0" x2="-173.2" y2="-100" />
    </g>
  </g>
</svg> 